<svg xmlns="http://www.w3.org/2000/svg" width="1200" height="790" viewBox="0 0 1200 790"><style>text{font-family:Arial,sans-serif;fill:#172c3a} .title{font-size:28px;font-weight:bold} .label{font-size:17px} .small{font-size:14px} .box{fill:#f0f5f7;stroke:#536e7d;stroke-width:2} .dc{stroke:#d45435;stroke-width:3;fill:none} .net{stroke:#287ac0;stroke-width:3;fill:none} .ground{stroke:#359868;stroke-width:3;fill:none}</style><rect width="1200" height="790" fill="white"/><text x="40" y="48" class="title">Power and control • three independent 350-pixel banks</text>
<text x="40" y="78" class="small">Planning diagram. Mains assembly / site protection require a qualified electrician.</text>
<rect x="40" y="110" width="315" height="83" class="box"/><text x="58" y="140" class="label">xLights → FSEQ + exact audio</text><text x="58" y="170" class="small">One FPP player → wired audio speaker</text>
<rect x="440" y="110" width="235" height="83" class="box"/><text x="465" y="142" class="label">Ethernet switch</text><text x="465" y="171" class="small">DDP realtime frames,40fps</text>
<path d="M355 151 H440" class="net"/>
<rect x="740" y="110" width="410" height="83" class="box"/><text x="760" y="140" class="label">Verified230V circuit / isolation</text><text x="760" y="170" class="small">Suitable30mA RCD; protected earth/mains</text><rect x="40" y="230" width="280" height="102" class="box"/><text x="56" y="258" class="label">A: Ethernet controller</text><text x="56" y="284" class="small">Data + GND → props; short data leads</text><text x="56" y="311" class="small">4 data outputs used</text>
<rect x="365" y="230" width="255" height="102" class="box"/><text x="383" y="258" class="label">A:12V PSU /320W</text><text x="383" y="285" class="small">350 nodes:21A /252W + overhead</text><text x="383" y="312" class="small">Dry, ventilated, protected terminals</text>
<rect x="665" y="230" width="215" height="102" class="box"/><text x="682" y="258" class="label">7 fused DC branches</text><text x="682" y="286" class="small">One50-node section each</text><text x="682" y="312" class="small">3A load;4A fuse* per section</text>
<rect x="925" y="230" width="225" height="102" class="box"/><text x="943" y="258" class="label">350 outdoor pixels</text><text x="943" y="286" class="small">V+ isolated between sections</text><text x="943" y="312" class="small">Same-bank reference ground</text>
<path d="M558 193 V220 H180 V230" class="net"/><path d="M945 193 V215 H493 V230" class="ground"/>
<path d="M620 276 H665 M880 276 H925" class="dc"/>
<path d="M320 310 H345 V347 H1040 V332" class="net"/><rect x="40" y="365" width="280" height="102" class="box"/><text x="56" y="393" class="label">B: Ethernet controller</text><text x="56" y="419" class="small">Data + GND → props; short data leads</text><text x="56" y="446" class="small">4 data outputs used</text>
<rect x="365" y="365" width="255" height="102" class="box"/><text x="383" y="393" class="label">B:12V PSU /320W</text><text x="383" y="420" class="small">350 nodes:21A /252W + overhead</text><text x="383" y="447" class="small">Dry, ventilated, protected terminals</text>
<rect x="665" y="365" width="215" height="102" class="box"/><text x="682" y="393" class="label">7 fused DC branches</text><text x="682" y="421" class="small">One50-node section each</text><text x="682" y="447" class="small">3A load;4A fuse* per section</text>
<rect x="925" y="365" width="225" height="102" class="box"/><text x="943" y="393" class="label">350 outdoor pixels</text><text x="943" y="421" class="small">V+ isolated between sections</text><text x="943" y="447" class="small">Same-bank reference ground</text>
<path d="M558 193 V355 H180 V365" class="net"/><path d="M945 193 V350 H493 V365" class="ground"/>
<path d="M620 411 H665 M880 411 H925" class="dc"/>
<path d="M320 445 H345 V482 H1040 V467" class="net"/><rect x="40" y="500" width="280" height="102" class="box"/><text x="56" y="528" class="label">C: Ethernet controller</text><text x="56" y="554" class="small">Data + GND → props; short data leads</text><text x="56" y="581" class="small">3 data outputs used</text>
<rect x="365" y="500" width="255" height="102" class="box"/><text x="383" y="528" class="label">C:12V PSU /320W</text><text x="383" y="555" class="small">350 nodes:21A /252W + overhead</text><text x="383" y="582" class="small">Dry, ventilated, protected terminals</text>
<rect x="665" y="500" width="215" height="102" class="box"/><text x="682" y="528" class="label">7 fused DC branches</text><text x="682" y="556" class="small">One50-node section each</text><text x="682" y="582" class="small">3A load;4A fuse* per section</text>
<rect x="925" y="500" width="225" height="102" class="box"/><text x="943" y="528" class="label">350 outdoor pixels</text><text x="943" y="556" class="small">V+ isolated between sections</text><text x="943" y="582" class="small">Same-bank reference ground</text>
<path d="M558 193 V490 H180 V500" class="net"/><path d="M945 193 V485 H493 V500" class="ground"/>
<path d="M620 546 H665 M880 546 H925" class="dc"/>
<path d="M320 580 H345 V617 H1040 V602" class="net"/><text x="40" y="680" class="small">*Fuse selection must protect every downstream wire/connector; confirm ratings, curves and ambient derating.</text>
<text x="40" y="707" class="small">Orange = fused12V power • Blue = Ethernet / pixel data • Green = protected mains route (schematic)</text>
<text x="40" y="734" class="small">Never parallel PSU positives. Only50-node sections on the same bank share return. No pixel current through Ethernet.</text>
<text x="40" y="761" class="small">21 protected sections total. IP68 nodes do not waterproof plugs, cuts or boxes. Software dimming is supplementary.</text></svg>